<svg width="9" height="14" viewBox="0 0 9 14" fill="none" xmlns="http://www.w3.org/2000/svg">
<path d="M3.68182 12.3529H2.86364C2.63182 12.3529 2.43764 12.2739 2.28109 12.1158C2.12455 11.9576 2.046 11.7622 2.04545 11.5294C2.04491 11.2966 2.12345 11.1012 2.28109 10.9431C2.43873 10.7849 2.63291 10.7059 2.86364 10.7059H3.68182V8.97647C2.60455 8.78431 1.72145 8.26604 1.03255 7.42165C0.343637 6.57725 -0.000544807 5.59945 6.47295e-07 4.48823C6.47295e-07 3.23922 0.439909 2.17906 1.31973 1.30776C2.19955 0.436471 3.25964 0.000549537 4.5 5.17943e-07C5.74036 -0.000548502 6.80073 0.435373 7.68109 1.30776C8.56145 2.18016 9.00109 3.24031 9 4.48823C9 5.6 8.65554 6.57808 7.96663 7.42247C7.27772 8.26686 6.39491 8.78486 5.31818 8.97647V10.7059H6.13636C6.36818 10.7059 6.56263 10.7849 6.71973 10.9431C6.87682 11.1012 6.95509 11.2966 6.95454 11.5294C6.954 11.7622 6.87545 11.9579 6.71891 12.1166C6.56236 12.2753 6.36818 12.354 6.13636 12.3529H5.31818V13.1765C5.31818 13.4098 5.23964 13.6055 5.08254 13.7636C4.92545 13.9218 4.73127 14.0005 4.5 14C4.26873 13.9994 4.07454 13.9204 3.91745 13.7628C3.76036 13.6053 3.68182 13.4098 3.68182 13.1765V12.3529ZM4.5 7.41176C5.29091 7.41176 5.96591 7.13039 6.525 6.56765C7.08409 6.0049 7.36363 5.32549 7.36363 4.52941C7.36363 3.73333 7.08409 3.05392 6.525 2.49118C5.96591 1.92843 5.29091 1.64706 4.5 1.64706C3.70909 1.64706 3.03409 1.92843 2.475 2.49118C1.91591 3.05392 1.63636 3.73333 1.63636 4.52941C1.63636 5.32549 1.91591 6.0049 2.475 6.56765C3.03409 7.13039 3.70909 7.41176 4.5 7.41176Z" fill="#D60CD6"/>
</svg>
