<svg width="12" height="12" viewBox="0 0 12 12" fill="none" xmlns="http://www.w3.org/2000/svg">
<path d="M12 0V4.5H10.5V2.56875L7.51875 5.53125C7.75625 5.88125 7.9375 6.25325 8.0625 6.64725C8.1875 7.04125 8.25 7.4505 8.25 7.875C8.25 9.025 7.85 10 7.05 10.8C6.25 11.6 5.275 12 4.125 12C2.975 12 2 11.6 1.2 10.8C0.4 10 0 9.025 0 7.875C0 6.725 0.4 5.75 1.2 4.95C2 4.15 2.975 3.75 4.125 3.75C4.5375 3.75 4.94375 3.80925 5.34375 3.92775C5.74375 4.04625 6.1125 4.23075 6.45 4.48125L9.43125 1.5H7.5V0H12ZM4.125 5.25C3.4 5.25 2.78125 5.50625 2.26875 6.01875C1.75625 6.53125 1.5 7.15 1.5 7.875C1.5 8.6 1.75625 9.21875 2.26875 9.73125C2.78125 10.2438 3.4 10.5 4.125 10.5C4.85 10.5 5.46875 10.2438 5.98125 9.73125C6.49375 9.21875 6.75 8.6 6.75 7.875C6.75 7.15 6.49375 6.53125 5.98125 6.01875C5.46875 5.50625 4.85 5.25 4.125 5.25Z" fill="#051EBD"/>
</svg>
