<svg width="178" height="149" viewBox="0 0 178 149" fill="none" xmlns="http://www.w3.org/2000/svg">
<path d="M89.005 119.322C89.7309 119.322 90.3181 118.734 90.3181 118.008C90.3181 117.283 89.7309 116.695 89.005 116.695C88.2791 116.695 87.6919 117.283 87.6919 118.008C87.6919 118.734 88.2791 119.322 89.005 119.322Z" fill="#CFCFCF"/>
<path d="M50.8638 20.4766V26.2357" stroke="#3425FF" stroke-width="1.33581" stroke-linecap="round" stroke-linejoin="round"/>
<path d="M47.9678 23.3594H53.742" stroke="#3425FF" stroke-width="1.33581" stroke-linecap="round" stroke-linejoin="round"/>
<path d="M116.442 56.8134C105.229 56.8134 93.814 56.3573 83.1376 53.3832C72.6603 50.4747 63.04 44.834 54.4656 38.3112C48.8527 34.0644 43.7489 30.6744 36.4599 31.1836C29.3322 31.5692 22.512 34.2307 17.0075 38.78C7.73746 46.8982 9.13124 61.9424 12.8413 72.4726C18.4139 88.3763 35.3761 99.456 49.7902 106.624C66.445 114.944 84.7456 119.78 103.087 122.553C119.162 125.005 139.821 126.772 153.754 116.282C166.548 106.624 170.058 84.5983 166.923 69.7279C166.162 65.3349 163.823 61.3703 160.345 58.5802C151.357 52.002 137.946 56.3976 127.844 56.6118C124.091 56.6925 120.273 56.7857 116.442 56.8134Z" fill="#F7F6FF"/>
<path d="M98.3029 12.6263C99.0287 12.6263 99.616 12.039 99.616 11.3131C99.616 10.5873 99.0287 10 98.3029 10C97.577 10 96.9897 10.5873 96.9897 11.3131C96.9897 12.039 97.577 12.6263 98.3029 12.6263Z" fill="#CFCFCF"/>
<path d="M30.0835 114.859V120.621" stroke="#3425FF" stroke-width="1.33581" stroke-linecap="round" stroke-linejoin="round"/>
<path d="M27.2026 117.742H32.9643" stroke="#3425FF" stroke-width="1.33581" stroke-linecap="round" stroke-linejoin="round"/>
<path d="M89.5419 138.622C116.702 138.622 138.722 137.248 138.722 135.554C138.722 133.858 116.702 132.484 89.5419 132.484C62.3796 132.484 40.3589 133.858 40.3589 135.554C40.3589 137.248 62.3796 138.622 89.5419 138.622Z" fill="#F2F2F2"/>
<path d="M129.077 112.691H44.1245C43.5549 112.691 42.9929 112.565 42.4787 112.328C41.962 112.089 41.5033 111.741 41.1353 111.308C40.7673 110.874 40.4977 110.365 40.3464 109.818C40.1927 109.271 40.1599 108.697 40.2532 108.135L51.1186 42.2489C51.2648 41.3315 51.7336 40.4973 52.4418 39.8949C53.1475 39.2925 54.0473 38.9623 54.9748 38.9649H139.927C140.497 38.9649 141.056 39.0884 141.573 39.3278C142.087 39.5672 142.546 39.915 142.914 40.3486C143.279 40.7821 143.549 41.2912 143.7 41.8381C143.849 42.385 143.879 42.9597 143.786 43.5217L132.976 109.407C132.825 110.332 132.348 111.169 131.635 111.771C130.919 112.374 130.012 112.699 129.077 112.691Z" fill="#3425FF"/>
<path d="M130.123 37.245L79.6975 14.7303C78.2104 14.0649 76.4688 14.7329 75.8035 16.2199L59.8216 52.0145C59.1588 53.5016 59.8267 55.2432 61.3112 55.906L111.737 78.4207C113.224 79.0861 114.968 78.4182 115.631 76.9311L131.613 41.1365C132.278 39.6495 131.61 37.9079 130.123 37.245Z" fill="white" stroke="#3425FF" stroke-width="1.33581" stroke-linecap="round" stroke-linejoin="round"/>
<path d="M87.0898 44.1765C88.4156 42.314 90.3462 40.9681 92.554 40.3657C94.7594 39.7633 97.1059 39.9423 99.1953 40.8723C101.285 41.8048 102.988 43.428 104.017 45.4695C105.045 47.5135 105.337 49.8474 104.841 52.0805" stroke="#3425FF" stroke-width="0.907342" stroke-linecap="round" stroke-linejoin="round"/>
<path d="M111.204 42.1544C111.966 42.1544 112.583 41.5369 112.583 40.7757C112.583 40.012 111.966 39.3945 111.204 39.3945C110.441 39.3945 109.823 40.012 109.823 40.7757C109.823 41.5369 110.441 42.1544 111.204 42.1544Z" fill="#3425FF"/>
<path d="M91.2156 33.2286C91.9767 33.2286 92.5967 32.6111 92.5967 31.8499C92.5967 31.0862 91.9767 30.4688 91.2156 30.4688C90.4544 30.4688 89.8369 31.0862 89.8369 31.8499C89.8369 32.6111 90.4544 33.2286 91.2156 33.2286Z" fill="#3425FF"/>
<path d="M128.701 112.662H43.3332C42.2948 112.657 41.2992 112.244 40.5658 111.508C39.8324 110.772 39.4215 109.776 39.4215 108.738V48.5435C39.4089 48.0217 39.5022 47.5025 39.6912 47.0161C39.8828 46.5297 40.1701 46.0861 40.533 45.7105C40.8985 45.3375 41.332 45.0401 41.8134 44.836C42.2948 44.6318 42.8115 44.526 43.3332 44.5234H74.4298C75.1506 44.526 75.8564 44.7276 76.4713 45.1056C77.0863 45.4837 77.5854 46.0256 77.913 46.6683L82.3464 55.3485C82.674 55.9938 83.1705 56.5331 83.7855 56.9112C84.4005 57.2892 85.1087 57.4909 85.8296 57.4934H128.701C129.737 57.4934 130.733 57.9042 131.469 58.6376C132.2 59.3711 132.613 60.3666 132.613 61.405V108.738C132.613 109.776 132.202 110.772 131.469 111.508C130.735 112.244 129.74 112.657 128.701 112.662Z" fill="white" stroke="#3425FF" stroke-width="1.33581" stroke-linecap="round" stroke-linejoin="round"/>
<path d="M115.557 59.543C110.628 59.5405 105.806 60.9998 101.703 63.7369C97.6021 66.4766 94.4037 70.3681 92.5134 74.9249C90.6257 79.4793 90.1291 84.4924 91.0894 89.3315C92.0497 94.1682 94.4239 98.6116 97.9096 102.1C101.398 105.588 105.839 107.965 110.675 108.928C115.512 109.89 120.525 109.399 125.082 107.511C129.641 105.623 133.535 102.427 136.275 98.3293C139.015 94.2286 140.477 89.4071 140.477 84.4747C140.477 77.8637 137.853 71.5249 133.18 66.8496C128.507 62.1743 122.168 59.5455 115.557 59.543Z" fill="white" stroke="#3425FF" stroke-width="1.33581" stroke-linecap="round" stroke-linejoin="round"/>
<path d="M133.296 102.562L139.942 109.209" stroke="#3425FF" stroke-width="1.33581" stroke-linecap="round" stroke-linejoin="round"/>
<path d="M139.189 105.98L137.127 108.14C136.202 109.108 136.235 110.64 137.203 111.568L155.12 128.694C156.086 129.619 157.623 129.586 158.548 128.616L160.612 126.456C161.537 125.49 161.504 123.953 160.534 123.028L142.619 105.902C141.651 104.977 140.116 105.012 139.189 105.98Z" fill="#D2D2D2"/>
<path d="M152.454 11.3125V17.0867" stroke="#3425FF" stroke-width="1.33581" stroke-linecap="round" stroke-linejoin="round"/>
<path d="M149.56 14.207H155.334" stroke="#3425FF" stroke-width="1.33581" stroke-linecap="round" stroke-linejoin="round"/>
</svg>
